<svg width="24" height="24" viewBox="0 0 24 24" fill="none" xmlns="http://www.w3.org/2000/svg">
<path d="M12 2C6.48 2 2 6.48 2 12C2 17.52 6.48 22 12 22C17.52 22 22 17.52 22 12C22 6.48 17.52 2 12 2ZM12 20C7.59 20 4 16.41 4 12C4 7.59 7.59 4 12 4C16.41 4 20 7.59 20 12C20 16.41 16.41 20 12 20Z" fill="#4CAF50"/>
<path d="M16 8H8C6.9 8 6 8.9 6 10V14C6 15.1 6.9 16 8 16H16C17.1 16 18 15.1 18 14V10C18 8.9 17.1 8 16 8ZM16 14H8V10H16V14Z" fill="#81C784"/>
<path d="M11 11H9V13H11V11Z" fill="#4CAF50"/>
<path d="M15 11H13V13H15V11Z" fill="#4CAF50"/>
</svg>
